<?xml version="1.0" standalone="no"?>
<!DOCTYPE svg PUBLIC "-//W3C//DTD SVG 20010904//EN"
 "http://www.w3.org/TR/2001/REC-SVG-20010904/DTD/svg10.dtd">
<svg version="1.0" xmlns="http://www.w3.org/2000/svg"
 width="123.000000pt" height="123.000000pt" viewBox="0 0 123.000000 123.000000"
 preserveAspectRatio="xMidYMid meet">
<metadata>
Created by potrace 1.10, written by Peter Selinger 2001-2011
</metadata>
<g transform="translate(0.000000,123.000000) scale(0.100000,-0.100000)"
fill="#000000" stroke="none">
<path d="M375 1115 c-33 -7 -77 -20 -97 -29 l-38 -16 -1 -103 c-1 -191 2 -230
28 -311 59 -187 151 -321 297 -429 57 -43 54 -44 155 49 108 100 184 222 231
369 18 57 23 102 27 246 l6 177 -54 20 c-30 11 -86 25 -126 31 -97 15 -353 13
-428 -4z m115 -34 c-5 -11 -10 -29 -10 -41 0 -19 -4 -20 -37 -14 -21 3 -49 17
-62 29 l-24 23 44 10 c24 5 57 10 72 11 24 1 26 -1 17 -18z m347 -5 c13 -13
-31 -46 -62 -46 -27 0 -34 5 -39 27 -4 15 -3 29 4 33 12 7 86 -3 97 -14z
m-173 8 l46 -7 0 -83 0 -84 -102 2 c-57 2 -102 6 -100 11 1 4 2 40 2 81 0 74
0 75 28 79 47 7 78 7 126 1z m-329 -34 c-19 -21 -45 -27 -45 -10 0 11 30 29
49 30 11 0 10 -5 -4 -20z m576 10 c26 -14 24 -30 -4 -30 -12 0 -28 9 -35 20
-10 17 -10 20 4 20 8 0 24 -5 35 -10z m-541 -25 c0 -8 5 -15 12 -15 6 0 1 -11
-12 -25 -13 -14 -18 -25 -12 -25 7 0 12 5 12 11 0 7 11 8 32 4 26 -6 30 -5 25
9 -5 11 -1 16 13 16 18 0 17 -3 -7 -50 -25 -48 -27 -50 -69 -50 -42 0 -44 2
-69 50 -30 59 -30 56 -5 56 15 0 18 -5 14 -18 -3 -11 0 -18 8 -18 18 0 39 15
37 26 -1 5 -1 17 0 27 1 21 21 23 21 2z m491 -2 c1 -10 1 -22 0 -27 -2 -11 19
-26 38 -26 8 0 11 6 7 15 -4 10 1 15 15 15 11 0 19 -3 17 -8 -43 -96 -39 -92
-89 -92 -47 0 -68 17 -52 42 3 6 2 8 -4 5 -6 -4 -15 5 -22 19 -15 33 -14 41 4
41 11 0 13 -6 9 -20 -5 -17 -3 -19 17 -14 13 4 28 7 32 7 4 0 7 6 6 13 -3 26
1 47 11 47 6 0 11 -8 11 -17z m-374 -103 c6 -17 23 -34 37 -40 33 -12 33 -20
-4 -55 l-30 -29 -39 38 -39 38 26 39 c15 21 29 38 32 39 3 0 11 -13 17 -30z
m288 -7 c13 -16 25 -32 25 -38 0 -13 -62 -75 -76 -75 -7 0 -24 15 -39 32 l-28
33 32 12 c17 8 36 24 41 38 12 31 15 31 45 -2z m175 -38 c0 -49 -4 -53 -32
-28 -22 20 -23 31 -1 55 25 28 33 22 33 -27z m-647 21 c21 -16 21 -25 0 -48
-25 -27 -33 -22 -33 22 0 43 5 47 33 26z m247 -88 l58 63 58 -65 58 -64 61 66
61 66 45 -48 c71 -78 72 -80 60 -137 -18 -82 -65 -192 -115 -267 -48 -72 -197
-222 -221 -222 -18 0 -101 67 -157 128 -86 92 -151 211 -188 346 l-19 68 57
64 57 64 63 -63 64 -62 58 63z"/>
<path d="M523 1000 c0 -41 2 -58 4 -37 2 20 2 54 0 75 -2 20 -4 3 -4 -38z"/>
<path d="M600 1052 c0 -18 -38 -51 -48 -43 -2 2 -6 0 -9 -2 -3 -3 9 -3 26 -1
29 5 31 3 31 -25 0 -51 18 -35 22 20 2 32 -2 54 -9 61 -10 8 -13 5 -13 -10z"/>
<path d="M693 990 c0 -36 2 -50 4 -32 2 17 2 47 0 65 -2 17 -4 3 -4 -33z"/>
<path d="M563 934 c7 -8 87 -7 95 0 3 3 -19 6 -48 6 -29 0 -51 -3 -47 -6z"/>
<path d="M359 708 c0 -2 -2 -22 -4 -46 -3 -34 1 -48 18 -65 12 -12 23 -25 23
-29 1 -5 2 -12 3 -18 0 -5 17 -10 37 -10 31 0 35 2 24 15 -11 13 -7 15 24 15
20 0 53 -7 73 -15 36 -15 36 -15 18 5 -13 14 -15 23 -7 33 9 10 4 12 -22 9
-39 -5 -54 11 -32 34 19 18 21 28 4 18 -8 -5 -9 -2 -5 9 8 21 4 21 -34 1 -37
-19 -56 -13 -61 18 -2 17 -11 24 -30 26 -16 2 -28 2 -29 0z m79 -77 c37 -15
40 -26 12 -41 -15 -8 -23 -6 -40 12 -19 21 -28 54 -12 46 4 -3 22 -10 40 -17z"/>
<path d="M644 699 c-3 -6 -8 -29 -9 -50 -3 -31 1 -43 21 -58 14 -11 24 -23 23
-28 -4 -22 4 -29 36 -30 19 -1 35 3 35 8 0 5 -5 9 -12 9 -9 0 -9 3 0 12 11 11
65 4 117 -17 20 -8 20 -8 0 14 -16 19 -17 24 -5 32 11 7 7 9 -15 5 -16 -3 -37
-2 -45 3 -12 8 -12 13 4 30 12 13 14 21 7 21 -7 0 -9 5 -5 12 5 8 2 9 -12 4
-10 -4 -34 -10 -51 -13 -30 -5 -33 -3 -33 20 0 32 -40 51 -56 26z m75 -75 c26
-13 30 -19 20 -30 -17 -20 -36 -17 -53 8 -29 41 -19 48 33 22z"/>
<path d="M507 499 c-10 -6 -14 -15 -10 -22 4 -6 6 -25 5 -41 -2 -21 4 -35 18
-46 12 -9 22 -25 22 -36 2 -16 9 -20 35 -20 24 0 32 4 28 13 -10 29 39 27 113
-4 11 -4 11 -2 0 16 -11 18 -11 23 2 32 11 7 5 8 -21 3 -38 -6 -57 6 -42 29 4
6 8 22 8 34 1 20 -1 21 -27 7 -39 -20 -68 -18 -68 6 0 10 -9 24 -19 30 -23 12
-22 12 -44 -1z m78 -74 c30 -13 35 -18 25 -30 -7 -8 -17 -15 -23 -15 -16 0
-47 31 -47 47 0 16 0 16 45 -2z"/>
<path d="M232 520 c-35 -22 -36 -32 -6 -92 9 -17 10 -29 4 -33 -27 -17 -5 -52
93 -149 66 -67 121 -112 156 -129 l55 -27 21 20 c30 28 91 27 114 -2 l18 -22
56 28 c63 31 193 147 239 214 26 37 29 48 19 64 -9 15 -7 26 9 58 23 45 19 63
-16 79 -50 22 -76 6 -54 -34 10 -19 9 -27 -5 -48 -13 -21 -14 -29 -4 -45 11
-18 7 -27 -36 -77 -51 -60 -128 -126 -178 -152 -23 -12 -31 -12 -37 -2 -10 14
-133 13 -138 -1 -7 -21 -90 37 -175 121 -85 83 -89 90 -74 107 15 16 15 20 -3
47 -18 27 -18 31 -3 47 13 14 13 20 3 33 -16 19 -18 19 -58 -5z m759 0 c23
-13 24 -41 4 -80 -11 -21 -20 -27 -35 -23 -25 7 -25 11 0 48 25 37 25 55 3 55
-15 0 -16 -2 -3 -10 8 -5 11 -12 7 -17 -9 -9 -28 17 -21 29 7 11 21 10 45 -2z
m-723 -56 c15 -30 19 -50 13 -61 -14 -27 -2 -45 94 -133 50 -47 90 -88 88 -92
-2 -4 2 -6 9 -3 22 8 51 -21 43 -44 -5 -17 -10 -19 -25 -11 -32 17 -49 40 -44
58 5 14 3 14 -10 -2 -14 -18 -16 -18 -22 -2 -4 11 -1 22 7 28 11 8 11 9 -3 4
-9 -2 -19 0 -21 7 -2 7 -3 4 -2 -5 4 -26 -21 -9 -75 49 -86 91 -92 100 -85
122 3 12 13 21 20 21 8 0 17 5 21 12 5 7 1 9 -13 6 -17 -5 -23 2 -33 32 -12
36 -8 60 9 60 4 0 17 -21 29 -46z m715 -72 c15 -17 15 -21 -9 -56 -15 -21 -33
-36 -42 -35 -9 1 -25 -1 -35 -6 -14 -6 -16 -10 -6 -16 7 -4 19 -3 26 3 8 6 16
9 18 6 3 -2 -15 -24 -39 -47 -38 -38 -46 -42 -65 -32 -17 9 -21 9 -19 -1 2 -7
-3 -12 -9 -11 -15 3 -17 -13 -4 -21 5 -3 11 1 15 9 3 8 10 15 16 15 6 0 8 -5
4 -11 -7 -13 -110 -79 -121 -79 -4 0 -2 4 5 9 10 6 10 10 -3 21 -13 11 -15 9
-15 -13 0 -19 -4 -25 -14 -21 -22 8 -28 44 -8 44 10 0 32 9 50 20 18 11 38 18
43 14 5 -3 8 -2 7 3 -1 4 34 43 79 86 45 42 80 77 77 77 -2 0 3 11 11 24 13
19 13 25 3 29 -9 4 -8 6 3 6 9 1 23 -7 32 -17z m-329 -237 c-4 -10 -20 -15
-44 -15 -24 0 -40 5 -44 15 -4 12 4 15 44 15 40 0 48 -3 44 -15z"/>
<path d="M319 305 c-9 -35 9 -59 30 -41 12 9 14 8 8 -6 -7 -19 8 -34 18 -19 3
6 -8 24 -25 41 -16 17 -31 28 -31 25z"/>
<path d="M966 358 c5 -8 2 -9 -10 -5 -9 4 -15 3 -11 -2 3 -6 -3 -14 -12 -20
-16 -9 -13 -11 12 -11 3 0 5 3 4 7 0 3 6 10 15 15 18 10 21 28 5 28 -5 0 -7
-5 -3 -12z"/>
</g>
</svg>
