<?xml version="1.0" standalone="no"?>
<!DOCTYPE svg PUBLIC "-//W3C//DTD SVG 20010904//EN"
 "http://www.w3.org/TR/2001/REC-SVG-20010904/DTD/svg10.dtd">
<svg version="1.0" xmlns="http://www.w3.org/2000/svg"
 width="300.000000pt" height="300.000000pt" viewBox="0 0 300.000000 300.000000"
 preserveAspectRatio="xMidYMid meet">
<metadata>
Created by potrace 1.10, written by Peter Selinger 2001-2011
</metadata>
<g transform="translate(0.000000,300.000000) scale(0.100000,-0.100000)"
fill="#000000" stroke="none">
<path d="M613 2025 c-23 -16 -23 -18 -23 -265 l0 -249 26 -20 c25 -20 39 -21
261 -21 l234 0 -3 151 -3 151 48 -6 c112 -15 306 -98 422 -181 27 -19 51 -32
54 -30 10 11 -74 116 -156 196 -137 133 -258 207 -420 255 -75 22 -112 27
-253 31 -142 4 -168 2 -187 -12z m412 -54 c155 -41 341 -150 415 -244 14 -18
13 -18 -25 -1 -69 30 -198 72 -246 78 -37 6 -50 3 -72 -14 -26 -21 -27 -25
-27 -123 0 -56 -3 -112 -6 -125 l-6 -22 -212 2 -211 3 -3 224 c-2 168 1 227
10 239 19 22 275 11 383 -17z"/>
<path d="M1870 1390 l0 -150 -42 6 c-117 16 -294 90 -420 176 -32 21 -58 33
-58 27 0 -42 191 -242 299 -314 172 -114 304 -154 533 -162 l156 -6 26 26 26
26 0 236 0 236 -25 24 -24 25 -236 0 -235 0 0 -150z m460 90 c19 -19 20 -33
20 -223 0 -269 12 -252 -174 -244 -253 11 -407 69 -593 225 -62 52 -68 69 -15
46 144 -63 256 -91 295 -73 38 17 47 50 47 168 0 59 3 111 7 114 3 4 93 7 200
7 180 0 194 -1 213 -20z"/>
</g>
</svg>
