<?xml version="1.0" standalone="no"?>
<!DOCTYPE svg PUBLIC "-//W3C//DTD SVG 20010904//EN"
 "http://www.w3.org/TR/2001/REC-SVG-20010904/DTD/svg10.dtd">
<svg version="1.0" xmlns="http://www.w3.org/2000/svg"
 width="300.000000pt" height="300.000000pt" viewBox="0 0 300.000000 300.000000"
 preserveAspectRatio="xMidYMid meet">
<metadata>
Created by potrace 1.10, written by Peter Selinger 2001-2011
</metadata>
<g transform="translate(0.000000,300.000000) scale(0.100000,-0.100000)"
fill="#000000" stroke="none">
<path d="M1310 2835 c-153 -23 -364 -89 -338 -107 8 -5 3 -6 -14 -2 -18 4 -28
2 -28 -5 0 -6 -8 -11 -18 -11 -24 0 -191 -99 -256 -152 -255 -206 -429 -494
-493 -816 -21 -106 -23 -353 -4 -462 20 -111 76 -272 137 -390 168 -328 473
-576 830 -676 178 -50 363 -65 534 -44 97 12 264 54 330 82 78 34 95 41 100
43 13 3 97 50 148 82 200 127 384 334 490 553 40 83 87 229 109 339 24 119 23
355 -1 476 -114 577 -568 1007 -1151 1090 -120 17 -259 17 -375 0z m380 -25
c96 -15 230 -50 273 -72 21 -10 42 -16 47 -13 6 3 10 1 10 -4 0 -6 6 -11 13
-11 20 0 156 -69 177 -90 10 -10 27 -21 38 -24 11 -4 34 -20 51 -37 18 -16 37
-27 43 -23 8 5 9 2 5 -9 -3 -9 -3 -16 1 -16 20 3 33 -2 27 -11 -3 -5 -1 -10 5
-10 13 0 130 -110 130 -122 0 -9 27 -43 60 -74 13 -13 21 -26 18 -29 -3 -3 8
-20 23 -36 16 -17 29 -37 29 -45 0 -8 4 -14 8 -14 5 0 14 -11 20 -25 7 -15 8
-25 2 -25 -6 0 -10 -4 -10 -10 0 -5 6 -7 14 -4 19 7 36 -45 39 -123 2 -23 6
-45 11 -50 5 -4 6 1 2 12 -3 11 -1 27 4 35 9 13 11 13 20 0 5 -8 12 -33 16
-55 3 -22 10 -42 15 -45 4 -3 9 -25 10 -48 2 -23 7 -42 12 -42 5 0 7 -17 3
-37 -4 -27 -3 -32 4 -18 7 17 9 15 11 -15 1 -19 3 -46 5 -60 5 -53 4 -280 -2
-321 -3 -24 -10 -58 -15 -76 -6 -17 -11 -42 -13 -55 -6 -54 -72 -244 -87 -254
-5 -3 -9 -12 -9 -21 0 -20 -87 -165 -127 -213 -18 -21 -33 -41 -33 -45 0 -11
-28 -35 -41 -35 -7 0 -10 -3 -6 -6 9 -9 -19 -34 -40 -35 -10 0 -13 -3 -6 -6
10 -3 10 -7 0 -18 -7 -7 -15 -11 -19 -8 -5 2 -8 -3 -8 -12 0 -9 -4 -13 -10
-10 -5 3 -10 0 -10 -7 0 -8 -18 -27 -41 -44 -23 -16 -49 -36 -59 -45 -13 -12
-22 -14 -36 -6 -16 8 -17 7 -6 -4 16 -17 15 -26 -2 -26 -8 0 -39 -17 -70 -37
-30 -21 -60 -36 -67 -34 -7 2 -21 -4 -30 -13 -10 -10 -41 -21 -70 -25 -46 -6
-49 -8 -30 -18 23 -13 35 -8 -129 -52 -132 -35 -208 -44 -357 -45 -85 0 -159
4 -166 8 -6 4 -27 6 -45 4 -19 -1 -32 1 -29 6 3 5 -7 7 -24 5 -18 -3 -29 0
-29 7 0 7 -4 10 -9 7 -5 -3 -40 4 -78 16 -37 11 -76 21 -86 20 -10 0 -15 4
-11 10 5 7 1 9 -9 5 -10 -4 -16 -2 -14 6 1 6 -9 13 -23 15 -36 4 -80 23 -80
34 0 5 -5 6 -10 3 -6 -3 -23 3 -39 14 -16 12 -32 21 -35 21 -6 0 -31 20 -73
58 -14 13 -32 21 -40 18 -8 -3 -11 -1 -8 4 3 6 2 10 -3 10 -16 0 -92 64 -92
78 0 7 -4 11 -9 8 -11 -7 -33 18 -29 35 2 7 -6 15 -16 17 -26 5 -63 45 -58 60
2 7 -1 11 -6 10 -14 -4 -54 44 -48 58 3 8 -1 11 -10 7 -7 -3 -14 0 -14 6 0 6
-15 34 -33 63 -19 29 -32 59 -29 67 3 9 0 12 -10 8 -12 -4 -19 9 -33 58 -15
55 -44 105 -46 79 -1 -15 -27 74 -53 181 -14 55 -29 149 -33 208 -10 120 1
287 19 298 6 4 8 15 4 24 -7 20 3 87 13 81 3 -2 7 8 8 22 3 45 15 96 26 110 6
7 12 24 13 38 7 62 164 331 186 318 6 -4 9 -1 6 7 -2 7 7 24 20 36 14 13 21
23 17 23 -4 0 0 9 10 20 10 11 24 20 32 20 8 0 12 4 9 8 -6 10 67 82 83 82 6
0 11 5 11 11 0 6 7 8 16 5 12 -4 15 -2 10 9 -3 9 0 15 9 15 8 0 15 4 15 10 0
5 11 12 25 16 14 4 24 9 21 11 -7 8 50 48 114 80 30 16 57 31 60 34 3 3 33 12
68 19 56 13 60 15 41 26 -20 10 -19 12 17 18 21 4 59 15 83 23 133 45 427 67
581 43z"/>
<path d="M1070 2730 c0 -7 -7 -10 -17 -5 -14 5 -15 4 -6 -6 10 -10 16 -9 28 1
12 10 21 10 38 2 12 -6 58 -13 101 -16 43 -3 85 -11 92 -17 7 -6 26 -11 43
-11 18 -1 28 -5 24 -11 -4 -6 0 -8 10 -4 9 3 17 1 19 -5 3 -9 62 -35 96 -42 8
-1 17 -8 21 -15 5 -7 12 -13 17 -13 5 0 8 -4 7 -9 -2 -4 4 -6 11 -3 17 6 112
-59 109 -75 -2 -6 4 -8 14 -4 11 4 14 3 9 -6 -4 -6 -3 -10 2 -9 13 4 93 -68
84 -77 -4 -4 0 -6 8 -3 17 5 44 -47 33 -66 -4 -8 -2 -8 7 1 10 9 18 6 37 -13
14 -14 21 -29 17 -37 -4 -6 -4 -9 1 -5 15 14 35 -13 30 -41 -4 -18 -3 -21 3
-8 7 16 11 13 27 -20 10 -21 17 -44 16 -52 -1 -7 2 -10 7 -7 6 3 13 -1 16 -10
9 -24 6 -42 -4 -19 -8 18 -9 18 -9 2 -1 -11 8 -21 19 -24 11 -3 20 -8 20 -12
0 -3 11 -57 26 -120 27 -123 36 -228 20 -249 -5 -8 -9 -33 -7 -57 2 -39 -1
-44 -19 -42 -11 1 -19 6 -17 11 2 6 -4 17 -14 26 -10 8 -19 22 -21 30 -2 8
-11 23 -22 35 -10 11 -23 32 -28 47 -6 17 -15 25 -24 21 -8 -3 -14 1 -14 11 0
9 -5 16 -11 16 -6 0 -8 7 -5 16 5 12 2 15 -10 10 -12 -5 -15 -2 -10 9 3 10 2
13 -5 10 -5 -4 -23 8 -39 27 -16 18 -30 29 -30 25 0 -4 -11 3 -25 15 -14 13
-34 31 -45 40 -10 9 -20 12 -22 7 -2 -5 -15 2 -30 16 -15 14 -31 25 -35 25 -5
0 -21 5 -38 10 -16 5 -68 12 -115 14 -47 3 -121 9 -165 15 -78 10 -248 4 -241
-8 2 -3 -12 -7 -33 -8 -86 -4 -261 -83 -369 -166 -213 -163 -374 -456 -387
-701 -2 -34 -1 -52 2 -41 3 11 9 24 14 30 5 5 9 34 9 65 0 51 38 187 65 230
25 41 56 97 61 113 4 9 10 17 15 17 5 0 6 8 2 18 -3 9 -2 14 2 9 5 -4 21 12
36 35 15 23 45 59 66 79 21 21 46 47 57 58 10 11 23 18 30 17 6 -2 7 -1 3 2
-9 4 11 32 23 32 5 0 19 9 32 20 69 60 86 71 116 82 17 7 32 15 32 20 0 4 7 4
17 1 9 -4 14 -2 10 4 -3 5 17 15 46 23 29 7 57 16 62 20 32 24 264 44 370 33
31 -4 41 -10 42 -24 1 -12 -7 -21 -23 -25 -13 -3 -24 -9 -24 -13 0 -3 -18 -15
-40 -25 -22 -11 -40 -24 -40 -29 0 -5 -9 -7 -21 -4 -16 4 -18 3 -8 -9 7 -9 8
-14 1 -14 -6 0 -23 -13 -38 -30 -20 -21 -31 -26 -37 -17 -5 9 -7 8 -5 -3 1 -8
-14 -31 -33 -50 -20 -19 -42 -46 -49 -60 -7 -13 -24 -33 -37 -43 -12 -10 -23
-26 -23 -36 0 -9 -5 -22 -12 -29 -7 -7 -9 -12 -5 -12 4 0 1 -13 -8 -29 -17
-35 -31 -106 -18 -98 9 6 8 -6 -17 -197 -48 -360 169 -730 536 -914 123 -62
325 -115 347 -93 8 8 1 11 -24 11 -64 0 -299 79 -299 101 0 5 -7 5 -17 2 -11
-4 -14 -3 -9 5 5 8 0 12 -12 12 -11 0 -23 7 -26 16 -3 9 -12 14 -18 12 -13 -5
-17 -3 -62 37 -16 14 -32 25 -36 25 -4 0 -26 18 -48 40 -22 22 -45 40 -51 40
-6 0 -13 11 -17 25 -3 14 -10 23 -14 20 -5 -3 -21 13 -37 36 -15 23 -36 50
-45 60 -10 11 -18 26 -18 34 0 8 -4 15 -9 15 -5 0 -14 13 -21 30 -7 16 -16 27
-21 25 -4 -3 -4 9 1 26 8 26 7 29 -5 19 -11 -9 -15 -10 -15 -1 0 7 -9 32 -20
56 -11 25 -21 63 -23 85 -1 22 -6 40 -11 40 -5 0 -6 3 -3 6 3 4 1 16 -5 27
-11 22 -12 80 -2 190 3 34 6 73 7 86 1 13 7 26 12 27 11 4 85 -108 85 -128 1
-16 30 -56 30 -41 0 7 -4 15 -10 18 -5 3 -10 11 -10 18 0 6 15 -11 34 -38 18
-28 56 -70 85 -94 28 -24 48 -48 44 -54 -3 -6 -1 -7 6 -3 6 4 18 0 27 -8 8 -9
22 -16 30 -16 8 0 14 -4 14 -8 0 -4 14 -13 31 -19 17 -7 28 -16 25 -21 -3 -6
1 -13 10 -16 8 -3 12 -2 9 4 -9 14 9 12 23 -2 6 -6 20 -13 29 -15 52 -10 73
-11 73 -4 0 4 26 4 58 0 211 -27 236 -28 320 -19 48 5 112 16 142 25 30 9 64
18 75 20 11 3 47 19 79 36 184 96 334 240 428 409 77 139 115 262 122 395 5
94 -10 60 -18 -41 -5 -59 -49 -215 -69 -241 -5 -7 -21 -36 -36 -65 -44 -88
-85 -148 -98 -143 -7 2 -10 -2 -7 -10 3 -8 -4 -20 -15 -27 -12 -7 -21 -18 -21
-25 0 -7 -7 -13 -15 -13 -8 0 -15 -5 -15 -11 0 -16 -26 -39 -35 -31 -5 4 -5
-1 -2 -11 4 -10 3 -16 -1 -13 -12 7 -63 -39 -54 -49 4 -5 2 -5 -4 -2 -7 4 -26
-7 -44 -23 -18 -17 -39 -30 -48 -30 -8 0 -12 -3 -9 -6 10 -10 -75 -52 -92 -46
-10 4 -12 1 -6 -8 6 -10 2 -12 -18 -8 -15 3 -24 2 -22 -2 2 -4 -11 -14 -30
-23 -22 -11 -35 -13 -35 -6 0 8 -4 8 -14 0 -26 -22 -195 -43 -295 -36 -105 6
-122 12 -97 31 11 7 15 18 10 25 -4 7 -3 10 4 5 12 -7 82 31 82 45 0 5 10 4
23 -2 20 -11 21 -11 9 4 -11 13 -10 16 6 21 16 6 167 156 163 164 -6 11 2 14
10 2 9 -13 10 -13 8 0 -3 22 17 67 35 77 15 8 37 61 61 146 12 41 11 47 0 37
-17 -14 -16 -10 10 150 44 258 -44 528 -238 736 -92 97 -171 156 -293 218
-137 68 -228 95 -344 102 -30 1 -67 6 -82 10 -19 4 -28 2 -28 -6z m509 -735
c87 -41 182 -109 248 -177 76 -79 168 -220 184 -280 11 -41 10 -51 -9 -98 -58
-140 -201 -295 -356 -387 -112 -66 -148 -73 -222 -39 -168 77 -322 226 -413
402 -35 68 -36 102 -6 169 62 134 187 271 332 361 79 49 133 73 168 73 11 1
44 -11 74 -24z"/>
</g>
</svg>
